<svg id="Warstwa_1" data-name="Warstwa 1" xmlns="http://www.w3.org/2000/svg" viewBox="0 0 843 94.25"><defs><style>.cls-1{stroke:#000;stroke-miterlimit:10;}</style></defs><title>footer_img</title><polygon class="cls-1" points="465.28 33.97 429.9 33.97 429.9 54.82 464.65 54.19 465.28 33.97"/><path class="cls-1" d="M806.34,980.71h2.54c1.28,0,.64-.63.64-5.06.63-3.15-4.43-2.54-5.69-1.89s-.63,1.89,0,7c-2.54,0,0,10.11,0,10.11h11.36v-1.9l-6.32.63C811.4,988.29,806.34,980.71,806.34,980.71Z" transform="translate(-417.5 -930.94)"/><path class="cls-1" d="M884,995v-3.15h-4.42v-5.06H849.93v5.06h-4.42v1.27l-1.27-40.44h-6.31v4.43h1.27l1.58,54a9.36,9.36,0,0,0-3.3-3.81h.76v-3.16l-6-.32-6.63-32.52h2.21l.63-3.79h-4.73V965H801l-2.54,3.15h-3.14v3.8l2.54,1.27-.65,16.45-1.89,1.27s-7.58.63-7.58,3.79v4.42h-5.05v13.27h2.91a6.62,6.62,0,1,0,9.09,9.09v1h29.69v-2a9.47,9.47,0,0,0,16.66-1.63l.08,2.72h4.42l-.63-8.21h1.27l-.56-18,.87-.3Zm-16.42-7h10.74v2.55H867.62Zm-15.16,0h12.63v2.55H852.46Zm-57.8,26.59a6.72,6.72,0,0,0-2.28-2.28h2.28Zm6.63-22.49,1.27-22.75h19.59l5.68,22.75Z" transform="translate(-417.5 -930.94)"/><path class="cls-1" d="M994.6,941.88v20.76h14.52C1007.62,953.83,1000.84,948.08,994.6,941.88Z" transform="translate(-417.5 -930.94)"/><path class="cls-1" d="M1042.48,1000.41c-6.54-7.72-27-31.44-32.62-32.92a2,2,0,0,1-1.47-1.7.63.63,0,0,0,0-.23H995.24v34.11h-1.9v-57.5c-.62-.39-104.24,0-104.24,0-1.07,0-1.27,2.12-1.27,3.21V997.1a2,2,0,0,0,.27,1h0l1.42.95.19,0c.59,0,.27,1.08.27,1.08a.56.56,0,0,0-.3.5v.29H862.57v2.54h22.68a.58.58,0,0,0-.57.57h0s-.18,4-.13,6.53a1.78,1.78,0,0,0,1.78,1.75h21.21a1.85,1.85,0,0,0,1.64-1c.61-1.25.8-.6.78-.34-1.25,14.9,18.06,20.06,19.48,3.08a1.93,1.93,0,0,1,1.93-1.74h56.28v-2.54h7v2.54h15.91a1.92,1.92,0,0,1,1.92,1.64c1.8,13.1,18.07,14.67,18.79.2a2,2,0,0,1,1.94-1.84h11a.38.38,0,0,0,.38-.38h0v-6A8.62,8.62,0,0,0,1042.48,1000.41Zm-13.77-9s-28.43.64-28.43,0V973.13c0-1.11,9.47-.63,10.74.63,0,0,20.22,14.53,17.69,17.69Z" transform="translate(-417.5 -930.94)"/><polygon class="cls-1" points="570.15 80.35 570.15 80.35 577.1 80.35 577.1 80.35 570.44 80.35 570.15 80.35"/><polygon class="cls-1" points="402.11 54.19 397.69 56.71 399.58 59.87 402.74 59.87 400.85 56.71 402.74 54.82 402.11 54.19"/><path class="cls-1" d="M604.05,1021.57h32.44V996.43H604.05Zm17.84-3.65h11.35v2.84H621.89Zm-14.59,0h11.35v2.84H607.3Z" transform="translate(-417.5 -930.94)"/><path class="cls-1" d="M637.3,996.43v25.14h32V996.43Zm14.59,24.33H640.54v-2.84h11.35Zm14.6,0H655.14v-2.84h11.35Z" transform="translate(-417.5 -930.94)"/><rect class="cls-1" x="182.5" y="90.63" width="75" height="2.43"/><path class="cls-1" d="M637,996.33h32.43V972H637Zm17.84-3.24h11.35v2.43H654.8Zm-14.59,0h11.35v2.43H640.21Z" transform="translate(-417.5 -930.94)"/><path class="cls-1" d="M515.1,1021.54h32.78v-25.4H515.1Zm18-3.69H544.6v2.87H533.13Zm-14.75,0h11.47v2.87H518.38Z" transform="translate(-417.5 -930.94)"/><path class="cls-1" d="M548.7,996.14v25.4h32.37v-25.4Zm14.75,24.58H552v-2.87h11.47Zm14.75,0H566.73v-2.87H578.2Z" transform="translate(-417.5 -930.94)"/><path class="cls-1" d="M548.7,971.14v24.59l32.37.41v-25Zm14.75,23.77H552v-2.46h11.47Zm14.75,0H566.32v-2.46H578.2Z" transform="translate(-417.5 -930.94)"/><rect class="cls-1" x="93.5" y="90.6" width="75.81" height="2.46"/><path class="cls-1" d="M515.1,996h32.78V971.45H515.1Zm18-3.27H544.6v2.45H533.13Zm-14.75,0h11.47v2.45H518.38Z" transform="translate(-417.5 -930.94)"/><path class="cls-1" d="M530.62,938H515.25V971H546v-39.6H530.62Zm-1.54,32.29H518.32V968h10.76Zm13.84,0H532.16V968h10.76Z" transform="translate(-417.5 -930.94)"/><path class="cls-1" d="M1137.1,1021.54h32.78v-25.4H1137.1Zm18-3.69h11.47v2.87h-11.47Zm-14.75,0h11.47v2.87h-11.47Z" transform="translate(-417.5 -930.94)"/><path class="cls-1" d="M1170.7,996.14v25.4h32.37v-25.4Zm14.75,24.58H1174v-2.87h11.47Zm14.75,0h-11.47v-2.87h11.47Z" transform="translate(-417.5 -930.94)"/><path class="cls-1" d="M1170.7,971.14v24.59l32.37.41v-25Zm14.75,23.77H1174v-2.46h11.47Zm14.75,0h-11.88v-2.46h11.88Z" transform="translate(-417.5 -930.94)"/><rect class="cls-1" x="715.5" y="90.6" width="75.81" height="2.46"/><path class="cls-1" d="M1137.1,996h32.78V971.45H1137.1Zm18-3.27h11.47v2.45h-11.47Zm-14.75,0h11.47v2.45h-11.47Z" transform="translate(-417.5 -930.94)"/><path class="cls-1" d="M1145,971.2h34V945.7h-34Zm18.7-3.4h11.9v2.55h-11.9Zm-15.3,0h11.9v2.55h-11.9Z" transform="translate(-417.5 -930.94)"/><path class="cls-1" d="M1226,1024.2h34V998.7h-34Zm18.7-3.4h11.9v2.55h-11.9Zm-15.3,0h11.9v2.55h-11.9Z" transform="translate(-417.5 -930.94)"/><path class="cls-1" d="M1226,997.2h34V971.7h-34Zm18.7-3.4h11.9v2.55h-11.9Zm-15.3,0h11.9v2.55h-11.9Z" transform="translate(-417.5 -930.94)"/><path class="cls-1" d="M1102.62,983.09h-15.37V1024H1118V975h-15.38Zm-1.54,40h-10.76v-2.86h10.76Zm13.84,0h-10.76v-2.86h10.76Z" transform="translate(-417.5 -930.94)"/><path class="cls-1" d="M422.1,1021.54h32.78v-25.4H422.1Zm18-3.69H451.6v2.87H440.13Zm-14.75,0h11.47v2.87H425.38Z" transform="translate(-417.5 -930.94)"/><path class="cls-1" d="M455.7,996.14v25.4h32.37v-25.4Zm14.75,24.58H459v-2.87h11.47Zm14.75,0H473.73v-2.87H485.2Z" transform="translate(-417.5 -930.94)"/><path class="cls-1" d="M455.7,971.14v24.59l32.37.41v-25Zm14.75,23.77H459v-2.46h11.47Zm14.75,0H473.32v-2.46H485.2Z" transform="translate(-417.5 -930.94)"/><rect class="cls-1" x="0.5" y="90.6" width="75.81" height="2.46"/><path class="cls-1" d="M422.1,996h32.78V971.45H422.1Zm18-3.27H451.6v2.45H440.13Zm-14.75,0h11.47v2.45H425.38Z" transform="translate(-417.5 -930.94)"/></svg>