<?xml version="1.0" encoding="utf-8"?>
<!-- Generator: Adobe Illustrator 23.0.1, SVG Export Plug-In . SVG Version: 6.00 Build 0)  -->
<svg version="1.1" id="Warstwa_1" xmlns="http://www.w3.org/2000/svg" xmlns:xlink="http://www.w3.org/1999/xlink" x="0px" y="0px"
	 viewBox="0 0 1190.55 420.94" style="enable-background:new 0 0 1190.55 420.94;" xml:space="preserve">
<style type="text/css">
	.st0{fill:#231F20;}
	.st1{fill:#F68B1F;}
	.st2{fill:#FFFFFF;}
</style>
<g>
	<path class="st0" d="M443.55,224.49c-13.7-3.98-24.71-9.15-33.02-15.51l14.58-32.36c7.96,5.83,17.41,10.52,28.38,14.06
		c10.96,3.54,21.92,5.31,32.88,5.31c12.2,0,21.22-1.81,27.05-5.44c5.83-3.62,8.75-8.44,8.75-14.45c0-4.42-1.72-8.09-5.17-11
		c-3.45-2.92-7.87-5.26-13.26-7.03c-5.4-1.77-12.69-3.71-21.88-5.83c-14.15-3.36-25.73-6.72-34.74-10.08
		c-9.02-3.36-16.75-8.75-23.2-16.18c-6.46-7.43-9.68-17.33-9.68-29.7c0-10.78,2.92-20.55,8.75-29.3
		c5.84-8.75,14.63-15.69,26.39-20.82c11.76-5.13,26.12-7.69,43.1-7.69c11.84,0,23.42,1.42,34.74,4.24
		c11.31,2.83,21.22,6.89,29.7,12.2l-13.26,32.62c-17.15-9.72-34.3-14.59-51.45-14.59c-12.02,0-20.91,1.95-26.66,5.83
		c-5.75,3.89-8.62,9.02-8.62,15.38s3.31,11.1,9.94,14.19c6.63,3.1,16.75,6.14,30.37,9.15c14.14,3.36,25.72,6.72,34.74,10.08
		c9.01,3.36,16.75,8.66,23.2,15.91c6.45,7.25,9.68,17.07,9.68,29.44c0,10.61-2.96,20.29-8.88,29.04
		c-5.93,8.75-14.81,15.69-26.66,20.82c-11.84,5.13-26.25,7.69-43.23,7.69C471.44,230.45,457.25,228.46,443.55,224.49z"/>
	<path class="st0" d="M956.05,227.27l-35.8-51.71h-2.12h-37.39v51.71h-42.97V41.63h80.36c16.44,0,30.72,2.74,42.83,8.22
		c12.11,5.48,21.44,13.26,27.98,23.34c6.54,10.08,9.81,22.01,9.81,35.8s-3.31,25.68-9.94,35.67c-6.63,9.99-16.05,17.63-28.24,22.94
		l41.63,59.67H956.05z M945.17,84.99c-6.72-5.57-16.53-8.36-29.44-8.36h-35v64.71h35c12.9,0,22.72-2.83,29.44-8.49
		c6.72-5.66,10.08-13.61,10.08-23.87C955.25,98.56,951.89,90.56,945.17,84.99z"/>
	<path class="st0" d="M1078.3,76.63h-59.4V41.63h161.77v35.01h-59.41v150.63h-42.96V76.63z"/>
	<path class="st0" d="M512.22,366.82l-0.15-63.65l-31.22,52.43h-11.06l-31.06-51.07v62.28h-23.04V260.74h20.31l39.71,65.92
		l39.1-65.92h20.15l0.3,106.08H512.22z"/>
	<path class="st0" d="M649.97,344.09h-49.25l-9.4,22.73h-25.16l47.28-106.08h24.25l47.43,106.08h-25.76L649.97,344.09z
		 M642.24,325.45l-16.82-40.61l-16.82,40.61H642.24z"/>
	<path class="st0" d="M783.48,366.82l-20.46-29.55h-1.21h-21.37v29.55h-24.55V260.74h45.92c9.4,0,17.55,1.57,24.47,4.7
		c6.92,3.13,12.25,7.58,15.99,13.34c3.74,5.76,5.61,12.58,5.61,20.46c0,7.88-1.9,14.68-5.68,20.38
		c-3.79,5.71-9.17,10.08-16.14,13.11l23.79,34.1H783.48z M777.27,285.52c-3.84-3.18-9.45-4.77-16.82-4.77h-20v36.98h20
		c7.38,0,12.98-1.62,16.82-4.85c3.84-3.23,5.76-7.78,5.76-13.64C783.03,293.27,781.1,288.7,777.27,285.52z"/>
	<path class="st0" d="M885.62,325.15L871.37,340v26.82h-24.4V260.74h24.4v49.55l46.98-49.55h27.28l-43.95,47.28l46.52,58.8h-28.64
		L885.62,325.15z"/>
	<path class="st0" d="M1060.95,347.12v19.7h-82.13V260.74h80.17v19.7h-55.77v23.03h49.25v19.1h-49.25v24.55H1060.95z"/>
	<path class="st0" d="M1122.17,280.75h-33.95v-20h92.44v20h-33.95v86.08h-24.55V280.75z"/>
	<g>
		<circle class="st0" cx="203.19" cy="210.47" r="193.46"/>
		<g>
			<path class="st1" d="M133.55,96.7c24.11-26.93,66.29-28.1,91.97-3.51c0.1,0.1,0.26,0.1,0.36,0.01
				c1.39-1.33,10.57-10.18,13.58-13.07c0.52-0.5,0.52-1.33-0.02-1.82c-33.77-31.35-88.03-30.11-120.17,3.74
				c-28.9,30.44-29.25,77.67-0.8,108.51c8.38,9.08,18.34,15.87,29.07,20.4c0.76,0.32,1.65,0.15,2.24-0.42l15.15-14.62
				c0.37-0.36,0.2-0.96-0.31-1.09c-11.54-3.04-22.37-9.29-30.93-18.79C113.35,153.44,113.28,119.35,133.55,96.7z"/>
			<path class="st1" d="M264.75,204.57l-16.35,15.62c-0.22,0.21-0.12,0.57,0.18,0.65c11.76,3.04,22.79,9.34,31.49,18.96
				c20.44,22.59,20.45,56.59,0.02,79.19c-24.41,26.99-68.97,27.56-93.67,3.76c-7.9-7.62-14.27-16.29-18.78-23.68
				c-0.33-0.54-1-0.76-1.46-0.32l-13.94,13.54c-0.43,0.42-0.56,1.05-0.31,1.59c4.34,9.05,13.65,18.16,21.51,25.39
				c29.68,27.26,85.31,28.66,118.44-2.99c33.13-31.65,33.13-82.96,0-114.61c-7.88-7.53-16.93-13.25-26.58-17.19
				C265.12,204.39,264.9,204.43,264.75,204.57z"/>
			<g>
				<circle class="st2" cx="184.66" cy="138.77" r="20.21"/>
				<circle class="st2" cx="224.36" cy="270.21" r="20.21"/>
				
					<rect x="194.75" y="106.66" transform="matrix(0.7071 0.7071 -0.7071 0.7071 207.8757 -79.6495)" class="st2" width="10.66" height="208.9"/>
			</g>
		</g>
	</g>
	<circle class="st2" cx="685" cy="98.28" r="9.85"/>
	<g>
		<path class="st0" d="M782.34,85.25c-8.84-14.59-20.95-26.03-36.34-34.34c-15.38-8.31-32.71-12.46-51.98-12.46
			c-19.28,0-36.64,4.15-52.11,12.46c-15.48,8.31-27.58,19.76-36.34,34.34c-8.75,14.59-13.13,30.99-13.13,49.19
			c0,18.21,4.38,34.61,13.13,49.2c8.75,14.58,20.86,26.03,36.34,34.34c15.47,8.31,32.84,12.46,52.11,12.46
			c19.27,0,36.6-4.15,51.98-12.46c15.38-8.31,27.49-19.76,36.34-34.34c8.84-14.59,13.26-30.98,13.26-49.2
			C795.6,116.24,791.18,99.84,782.34,85.25z"/>
		<g>
			<path class="st1" d="M660.09,77.78c11.75-13.12,32.31-13.7,44.82-1.71c0.05,0.05,0.13,0.05,0.18,0c0.68-0.65,5.15-4.96,6.62-6.37
				c0.26-0.25,0.25-0.65-0.01-0.89c-16.46-15.28-42.9-14.68-58.56,1.82c-14.09,14.83-14.26,37.85-0.39,52.88
				c4.08,4.43,8.94,7.73,14.17,9.94c0.37,0.16,0.81,0.07,1.09-0.2l7.38-7.13c0.18-0.17,0.1-0.47-0.15-0.53
				c-5.63-1.48-10.9-4.53-15.07-9.16C650.25,105.43,650.21,88.81,660.09,77.78z"/>
			<path class="st1" d="M724.03,130.35l-7.97,7.61c-0.11,0.1-0.06,0.28,0.09,0.32c5.73,1.48,11.11,4.55,15.35,9.24
				c9.96,11.01,9.97,27.58,0.01,38.59c-11.9,13.15-33.61,13.43-45.65,1.83c-3.85-3.71-6.95-7.94-9.15-11.54
				c-0.16-0.26-0.49-0.37-0.71-0.16l-6.8,6.6c-0.21,0.2-0.27,0.51-0.15,0.77c2.11,4.41,6.65,8.85,10.48,12.37
				c14.46,13.29,41.58,13.97,57.72-1.46c16.15-15.42,16.15-40.43,0-55.86c-3.84-3.67-8.25-6.46-12.95-8.38
				C724.21,130.26,724.1,130.28,724.03,130.35z"/>
			<circle class="st2" cx="704.35" cy="162.34" r="9.85"/>
			<circle class="st2" cx="685" cy="98.28" r="9.85"/>
			
				<rect x="689.92" y="82.63" transform="matrix(0.7071 0.7071 -0.7071 0.7071 297.2555 -450.572)" class="st2" width="5.2" height="101.81"/>
		</g>
	</g>
</g>
</svg>
