<?xml version="1.0" encoding="utf-8"?>
<!-- Generator: Adobe Illustrator 23.0.1, SVG Export Plug-In . SVG Version: 6.00 Build 0)  -->
<svg version="1.1" id="Warstwa_1" xmlns="http://www.w3.org/2000/svg" xmlns:xlink="http://www.w3.org/1999/xlink" x="0px" y="0px"
	 viewBox="0 0 1190.55 420.94" style="enable-background:new 0 0 1190.55 420.94;" xml:space="preserve">
<style type="text/css">
	.st0{fill:#231F20;}
</style>
<path class="st0" d="M443.64,223.78c-13.7-3.98-24.71-9.15-33.01-15.51l14.58-32.35c7.96,5.83,17.41,10.52,28.38,14.05
	c10.96,3.54,21.92,5.3,32.88,5.3c12.2,0,21.21-1.81,27.05-5.44c5.83-3.62,8.75-8.44,8.75-14.45c0-4.42-1.72-8.09-5.17-11
	c-3.45-2.92-7.87-5.26-13.26-7.03c-5.39-1.77-12.69-3.71-21.88-5.83c-14.14-3.36-25.72-6.72-34.74-10.08
	c-9.02-3.36-16.75-8.75-23.2-16.18c-6.46-7.42-9.68-17.32-9.68-29.7c0-10.78,2.92-20.55,8.75-29.3
	c5.84-8.75,14.62-15.69,26.38-20.82c11.76-5.13,26.12-7.69,43.09-7.69c11.84,0,23.42,1.42,34.74,4.24
	c11.31,2.83,21.21,6.89,29.7,12.2l-13.26,32.62c-17.15-9.72-34.3-14.58-51.44-14.58c-12.02,0-20.91,1.95-26.65,5.83
	c-5.75,3.89-8.62,9.02-8.62,15.38c0,6.36,3.31,11.1,9.94,14.19c6.63,3.1,16.75,6.14,30.36,9.15c14.14,3.36,25.72,6.72,34.74,10.08
	c9.01,3.36,16.75,8.66,23.2,15.91c6.45,7.25,9.68,17.06,9.68,29.43c0,10.61-2.96,20.29-8.88,29.04
	c-5.93,8.75-14.81,15.69-26.65,20.81c-11.84,5.13-26.25,7.69-43.22,7.69C471.52,229.75,457.34,227.76,443.64,223.78z"/>
<path class="st0" d="M956.08,226.56l-35.8-51.71h-2.12h-37.39v51.71h-42.96V40.94h80.35c16.44,0,30.71,2.74,42.82,8.22
	c12.11,5.48,21.43,13.26,27.97,23.33c6.54,10.08,9.81,22.01,9.81,35.8s-3.31,25.68-9.94,35.67c-6.63,9.99-16.04,17.63-28.24,22.94
	l41.63,59.66H956.08z M945.21,84.3c-6.72-5.57-16.53-8.35-29.43-8.35h-35v64.7h35c12.9,0,22.71-2.83,29.43-8.49
	c6.72-5.66,10.08-13.61,10.08-23.86C955.28,97.87,951.92,89.87,945.21,84.3z"/>
<path class="st0" d="M1078.32,75.95h-59.4v-35h161.75v35h-59.4v150.62h-42.96V75.95z"/>
<path class="st0" d="M512.3,366.1l-0.15-63.64l-31.21,52.43h-11.06l-31.06-51.06v62.28h-23.03V260.03h20.3l39.7,65.91l39.09-65.91
	h20.15l0.3,106.07H512.3z"/>
<path class="st0" d="M650.04,343.37h-49.24l-9.39,22.73h-25.15l47.28-106.07h24.24l47.43,106.07h-25.76L650.04,343.37z
	 M642.31,324.73l-16.82-40.61l-16.82,40.61H642.31z"/>
<path class="st0" d="M783.53,366.1l-20.46-29.55h-1.21H740.5v29.55h-24.55V260.03h45.91c9.39,0,17.55,1.57,24.47,4.7
	c6.92,3.13,12.25,7.58,15.99,13.33c3.74,5.76,5.61,12.58,5.61,20.46s-1.9,14.67-5.68,20.38c-3.79,5.71-9.17,10.08-16.14,13.11
	l23.79,34.09H783.53z M777.32,284.81c-3.84-3.18-9.45-4.77-16.82-4.77h-20v36.97h20c7.37,0,12.98-1.62,16.82-4.85
	c3.84-3.23,5.76-7.78,5.76-13.64C783.08,292.56,781.15,287.99,777.32,284.81z"/>
<path class="st0" d="M885.66,324.43l-14.24,14.85v26.82h-24.4V260.03h24.4v49.55l46.97-49.55h27.27l-43.94,47.28l46.52,58.79H919.6
	L885.66,324.43z"/>
<path class="st0" d="M1060.97,346.4v19.7h-82.13V260.03H1059v19.7h-55.76v23.03h49.24v19.09h-49.24v24.55H1060.97z"/>
<path class="st0" d="M1122.19,280.03h-33.94v-20h92.43v20h-33.94v86.07h-24.55V280.03z"/>
<path class="st0" d="M340.09,72.99c-75.54-75.54-198.02-75.54-273.56,0c-75.54,75.54-75.54,198.02,0,273.56
	c75.54,75.54,198.02,75.54,273.56,0C415.63,271.01,415.63,148.53,340.09,72.99z M119.4,81.35c32.14-33.85,86.39-35.09,120.15-3.73
	c0.53,0.49,0.54,1.32,0.02,1.82c-3,2.89-12.18,11.74-13.57,13.07c-0.1,0.1-0.26,0.09-0.36-0.01c-25.68-24.58-67.86-23.41-91.96,3.51
	c-20.27,22.64-20.2,56.73,0.15,79.31c8.56,9.5,19.38,15.75,30.93,18.79c0.5,0.13,0.68,0.73,0.3,1.09l-15.15,14.62
	c-0.59,0.57-1.48,0.74-2.24,0.42c-10.73-4.53-20.68-11.31-29.06-20.39C90.15,159.01,90.5,111.78,119.4,81.35z M201.01,150.12
	c-6.65,8.97-19.31,10.84-28.27,4.19c-8.97-6.65-10.84-19.31-4.19-28.27s19.31-10.84,28.27-4.19
	C205.78,128.49,207.66,141.15,201.01,150.12z M122.58,280.48l147.7-147.7l7.54,7.54l-147.7,147.7L122.58,280.48z M227.35,289.51
	c-11.05,1.59-21.29-6.08-22.88-17.13c-1.59-11.05,6.08-21.29,17.13-22.88c11.05-1.59,21.29,6.08,22.88,17.13
	C246.07,277.68,238.4,287.92,227.35,289.51z M292,335.55c-33.12,31.65-88.75,30.25-118.43,2.99c-7.86-7.22-17.17-16.34-21.51-25.38
	c-0.26-0.54-0.13-1.17,0.31-1.59l13.94-13.54c0.46-0.45,1.13-0.22,1.46,0.32c4.51,7.38,10.88,16.06,18.78,23.68
	c24.69,23.8,69.24,23.23,93.65-3.76c20.43-22.59,20.42-56.59-0.02-79.18c-8.7-9.61-19.72-15.92-31.49-18.96
	c-0.31-0.08-0.41-0.44-0.18-0.65l16.35-15.62c0.15-0.14,0.37-0.18,0.56-0.1c9.65,3.94,18.7,9.66,26.58,17.19
	C325.13,252.6,325.13,303.91,292,335.55z"/>
<path class="st0" d="M782.4,84.56c-8.84-14.58-20.95-26.03-36.33-34.34c-15.38-8.31-32.7-12.46-51.97-12.46
	c-19.27,0-36.64,4.15-52.11,12.46c-15.47,8.31-27.58,19.75-36.33,34.34c-8.75,14.58-13.13,30.98-13.13,49.19
	c0,18.21,4.38,34.61,13.13,49.19c8.75,14.58,20.86,26.03,36.33,34.34c15.47,8.31,32.83,12.46,52.11,12.46
	c19.27,0,36.59-4.15,51.97-12.46c15.38-8.31,27.49-19.76,36.33-34.34c8.84-14.58,13.26-30.98,13.26-49.19
	C795.65,115.55,791.23,99.15,782.4,84.56z M653.2,69.95c15.66-16.49,42.1-17.1,58.56-1.82c0.26,0.24,0.26,0.64,0.01,0.89
	c-1.46,1.41-5.94,5.72-6.62,6.37c-0.05,0.05-0.13,0.04-0.18,0c-12.51-11.98-33.07-11.41-44.82,1.71
	c-9.88,11.03-9.84,27.65,0.07,38.65c4.17,4.63,9.45,7.68,15.07,9.16c0.25,0.07,0.33,0.36,0.15,0.53l-7.38,7.13
	c-0.29,0.28-0.72,0.36-1.09,0.2c-5.23-2.21-10.08-5.51-14.16-9.94C638.95,107.8,639.12,84.78,653.2,69.95z M692.97,103.46
	c-3.24,4.37-9.41,5.28-13.78,2.04c-4.37-3.24-5.28-9.41-2.04-13.78c3.24-4.37,9.41-5.28,13.78-2.04
	C695.3,92.92,696.21,99.09,692.97,103.46z M654.75,166.99l71.98-71.98l3.67,3.67l-71.98,71.98L654.75,166.99z M714.16,160.24
	c0.77,5.39-2.97,10.38-8.35,11.15c-5.38,0.77-10.38-2.97-11.15-8.35s2.97-10.38,8.35-11.15
	C708.4,151.12,713.39,154.86,714.16,160.24z M737.32,193.83c-16.14,15.42-43.25,14.74-57.72,1.46c-3.83-3.52-8.37-7.96-10.48-12.37
	c-0.12-0.26-0.06-0.57,0.15-0.77l6.8-6.6c0.22-0.22,0.55-0.11,0.71,0.16c2.2,3.6,5.3,7.83,9.15,11.54
	c12.03,11.6,33.75,11.32,45.64-1.83c9.96-11.01,9.95-27.58-0.01-38.59c-4.24-4.69-9.61-7.76-15.34-9.24
	c-0.15-0.04-0.2-0.21-0.09-0.32l7.97-7.61c0.07-0.07,0.18-0.09,0.27-0.05c4.7,1.92,9.11,4.71,12.95,8.38
	C753.46,153.4,753.46,178.41,737.32,193.83z"/>
</svg>
