<?xml version="1.0" encoding="utf-8"?>
<!-- Generator: Adobe Illustrator 23.0.1, SVG Export Plug-In . SVG Version: 6.00 Build 0)  -->
<svg version="1.1" id="Warstwa_1" xmlns="http://www.w3.org/2000/svg" xmlns:xlink="http://www.w3.org/1999/xlink" x="0px" y="0px"
	 viewBox="0 0 1190.55 420.94" style="enable-background:new 0 0 1190.55 420.94;" xml:space="preserve">
<style type="text/css">
	.st0{fill:#231F20;}
	.st1{fill:#F68B1F;}
	.st2{fill:#FFFFFF;}
</style>
<g>
	<path class="st0" d="M443.39,226.35c-13.72-3.98-24.75-9.16-33.07-15.54l14.6-32.4c7.97,5.84,17.45,10.53,28.42,14.08
		c10.98,3.54,21.96,5.31,32.93,5.31c12.22,0,21.25-1.81,27.09-5.45c5.85-3.62,8.77-8.45,8.77-14.48c0-4.42-1.73-8.1-5.19-11.02
		c-3.45-2.92-7.87-5.27-13.28-7.04c-5.4-1.76-12.7-3.72-21.91-5.84c-14.17-3.36-25.76-6.73-34.79-10.1
		c-9.03-3.36-16.78-8.76-23.25-16.2c-6.47-7.44-9.7-17.35-9.7-29.75c0-10.8,2.93-20.58,8.77-29.35
		c5.84-8.77,14.65-15.72,26.43-20.85c11.78-5.13,26.16-7.7,43.16-7.7c11.86,0,23.46,1.42,34.79,4.25
		c11.33,2.83,21.25,6.91,29.75,12.22l-13.28,32.67c-17.18-9.73-34.36-14.61-51.53-14.61c-12.05,0-20.94,1.95-26.7,5.84
		c-5.75,3.9-8.64,9.03-8.64,15.41c0,6.38,3.33,11.12,9.97,14.21c6.64,3.1,16.77,6.15,30.41,9.17c14.17,3.36,25.76,6.73,34.79,10.09
		c9.03,3.36,16.78,8.68,23.25,15.94c6.46,7.26,9.7,17.09,9.7,29.48c0,10.63-2.97,20.32-8.91,29.08
		c-5.93,8.77-14.82,15.72-26.69,20.85c-11.86,5.13-26.29,7.7-43.29,7.7C471.32,232.32,457.11,230.33,443.39,226.35z"/>
	<path class="st0" d="M642.06,219.84c-15.49-8.32-27.62-19.79-36.38-34.4c-8.77-14.61-13.15-31.03-13.15-49.27
		c0-18.24,4.38-34.66,13.15-49.27c8.76-14.61,20.9-26.07,36.38-34.4c15.5-8.32,32.9-12.48,52.2-12.48c19.3,0,36.65,4.16,52.06,12.48
		c15.41,8.33,27.54,19.79,36.39,34.4c8.85,14.61,13.28,31.04,13.28,49.27c0,18.24-4.43,34.66-13.28,49.27
		c-8.86,14.61-20.98,26.08-36.39,34.4c-15.4,8.32-32.76,12.48-52.06,12.48C674.96,232.32,657.56,228.16,642.06,219.84z
		 M724.01,188.1c8.86-5.05,15.81-12.08,20.86-21.11c5.04-9.03,7.57-19.3,7.57-30.81c0-11.51-2.53-21.78-7.57-30.81
		c-5.05-9.03-12-16.07-20.86-21.11c-8.86-5.05-18.77-7.57-29.74-7.57c-10.99,0-20.9,2.52-29.75,7.57
		c-8.86,5.05-15.81,12.08-20.85,21.11c-5.05,9.03-7.58,19.31-7.58,30.81c0,11.51,2.53,21.78,7.58,30.81
		c5.04,9.03,11.99,16.07,20.85,21.11c8.86,5.05,18.77,7.57,29.75,7.57C705.24,195.67,715.15,193.15,724.01,188.1z"/>
	<path class="st0" d="M956.67,229.14l-35.85-51.8h-2.12h-37.45v51.8h-43.03V43.21h80.49c16.46,0,30.77,2.75,42.89,8.24
		c12.13,5.49,21.47,13.28,28.03,23.37c6.54,10.09,9.82,22.05,9.82,35.86s-3.32,25.72-9.96,35.72c-6.64,10-16.07,17.66-28.29,22.98
		l41.7,59.76H956.67z M945.79,86.64c-6.74-5.58-16.57-8.37-29.48-8.37h-35.06v64.81h35.06c12.92,0,22.75-2.83,29.48-8.5
		c6.73-5.66,10.09-13.63,10.09-23.9C955.88,100.23,952.52,92.21,945.79,86.64z"/>
	<path class="st0" d="M1079.13,78.27h-59.5V43.21h162.03v35.06h-59.5v150.87h-43.03V78.27z"/>
	<path class="st0" d="M512.16,368.91l-0.14-63.75l-31.27,52.51h-11.08l-31.11-51.15v62.38h-23.07V262.66h20.34l39.77,66.03
		l39.16-66.03h20.19l0.3,106.25H512.16z"/>
	<path class="st0" d="M650.13,346.14H600.8l-9.42,22.77h-25.19l47.36-106.25h24.28l47.51,106.25h-25.8L650.13,346.14z
		 M642.39,327.48l-16.85-40.68l-16.85,40.68H642.39z"/>
	<path class="st0" d="M783.85,368.91l-20.49-29.6h-1.21h-21.41v29.6h-24.59V262.66h45.99c9.41,0,17.58,1.57,24.51,4.71
		c6.93,3.14,12.27,7.59,16.01,13.35c3.75,5.77,5.62,12.6,5.62,20.49s-1.9,14.7-5.7,20.41c-3.79,5.72-9.18,10.1-16.16,13.13
		l23.84,34.15H783.85z M777.62,287.48c-3.85-3.19-9.46-4.78-16.85-4.78h-20.04v37.03h20.04c7.38,0,13-1.61,16.85-4.85
		c3.85-3.24,5.76-7.79,5.76-13.66C783.39,295.25,781.47,290.67,777.62,287.48z"/>
	<path class="st0" d="M886.15,327.17l-14.27,14.87v26.87h-24.43V262.66h24.43v49.63l47.05-49.63h27.32l-44.02,47.36l46.6,58.89
		h-28.69L886.15,327.17z"/>
	<path class="st0" d="M1061.75,349.18v19.73h-82.26V262.66h80.3v19.73h-55.86v23.07h49.33v19.12h-49.33v24.59H1061.75z"/>
	<path class="st0" d="M1123.07,282.7h-33.99v-20.04h92.58v20.04h-33.99v86.21h-24.6V282.7z"/>
</g>
<circle class="st0" cx="202.65" cy="212.32" r="193.76"/>
<path class="st1" d="M132.9,98.37c24.15-26.97,66.39-28.14,92.12-3.52c0.1,0.1,0.26,0.1,0.36,0.01c1.39-1.33,10.59-10.19,13.6-13.09
	c0.52-0.5,0.52-1.33-0.02-1.83c-33.82-31.4-88.16-30.16-120.36,3.74c-28.95,30.49-29.3,77.8-0.8,108.68
	c8.39,9.1,18.36,15.89,29.11,20.43c0.76,0.32,1.66,0.15,2.24-0.42l15.18-14.65c0.37-0.36,0.2-0.96-0.31-1.09
	c-11.56-3.04-22.4-9.3-30.98-18.82C112.67,155.2,112.6,121.05,132.9,98.37z"/>
<path class="st1" d="M264.31,206.41l-16.37,15.64c-0.22,0.21-0.12,0.57,0.18,0.65c11.78,3.04,22.83,9.36,31.54,18.99
	c20.47,22.63,20.49,56.68,0.02,79.31c-24.45,27.03-69.08,27.61-93.81,3.76c-7.91-7.63-14.29-16.32-18.81-23.72
	c-0.33-0.54-1-0.77-1.46-0.32l-13.97,13.56c-0.43,0.42-0.56,1.05-0.31,1.59c4.34,9.06,13.67,18.19,21.54,25.43
	c29.72,27.31,85.45,28.7,118.63-2.99c33.18-31.7,33.18-83.09,0-114.79c-7.89-7.54-16.95-13.27-26.62-17.22
	C264.68,206.23,264.45,206.27,264.31,206.41z"/>
<circle class="st2" cx="184.09" cy="140.51" r="20.24"/>
<circle class="st2" cx="223.86" cy="272.15" r="20.87"/>
<rect x="194.2" y="108.34" transform="matrix(0.7071 0.7071 -0.7071 0.7071 209.0234 -78.7225)" class="st2" width="10.68" height="209.22"/>
</svg>
