<svg id="Warstwa_1" data-name="Warstwa 1" xmlns="http://www.w3.org/2000/svg" viewBox="0 0 330.47 498.96"><defs><style>.cls-1,.cls-17,.cls-21{fill:#dd9396;}.cls-2{fill:#160e42;}.cls-3{fill:#f7951d;}.cls-4,.cls-7{opacity:0.45;}.cls-5,.cls-7,.cls-8{fill:#d82128;}.cls-15,.cls-6{fill:#fff;}.cls-6{opacity:0.32;}.cls-8{opacity:0.21;}.cls-16,.cls-22,.cls-9{fill:#241f5b;}.cls-10{fill:#9498cb;opacity:0.5;}.cls-11{fill:#4154a3;}.cls-12,.cls-19,.cls-20{fill:none;stroke:#241f5b;}.cls-12,.cls-16,.cls-17,.cls-19,.cls-20,.cls-21{stroke-miterlimit:10;}.cls-12,.cls-19{stroke-width:7.12px;}.cls-12{stroke-dasharray:35.6;}.cls-12,.cls-13{opacity:0.6;}.cls-14{fill:#f26c22;opacity:0.47;}.cls-16{stroke:#9498cb;}.cls-16,.cls-17{stroke-width:1.78px;}.cls-17,.cls-21{stroke:#f8b5a4;}.cls-18{fill:#e46260;}.cls-20{stroke-width:6.73px;}.cls-21{stroke-width:1.95px;}.cls-22{opacity:0.24;}</style></defs><title>Worker1</title><path class="cls-1" d="M130.49,72.46V92.35c-4.28-.37-17-.39-16.85,12.46.18,15.43,18.27,13.59,18.27,13.59v-.08c1.43,10.41,4.25,19.35,9.9,25.88v53.52h61.72V144.2c5.65-6.53,8.47-15.47,9.9-25.88v.08s18.09,1.84,18.27-13.59C231.85,92,219.12,92,214.85,92.35V72.46m-73,72.2v-.45l.4.45h0l.44.49Zm61.69-.45" transform="translate(-1.53 -15.02)"/><path class="cls-2" d="M120.67,72l.24,21.38s3.62-1.39,10.32-1.07l3.5,7.17,2.49-11.38a24.74,24.74,0,0,1,5.1-10.45l4.53-4.87Z" transform="translate(-1.53 -15.02)"/><path class="cls-2" d="M224.58,72l-.25,21.38s-2.82-1.37-9-1l-4,7.15-2.08-11.37a25.43,25.43,0,0,0-4.7-10.45L200.39,72Z" transform="translate(-1.53 -15.02)"/><path class="cls-3" d="M231.08,62.44l-4.93.05c-1.14-18.74-15-34.4-35.21-40.38h0s-1.57-7.21-13.3-7.08-11.95,4.55-11.95,4.55l.11.27c-25.33,2.52-41.4,19.31-43.57,40.32l-7.78-.47-1,12.43,57.91,4.44,60.43-.63Z" transform="translate(-1.53 -15.02)"/><g class="cls-4"><path class="cls-5" d="M125.07,97.5A9.17,9.17,0,0,1,129,99.92a10.21,10.21,0,0,1,2.45,4.3,11,11,0,0,1,.36,2.62c0,.47-.06,1-.11,1.45,0,.27-.13.54-.2.81a4.36,4.36,0,0,1-.3.85,5.88,5.88,0,0,1-3,3.11,6.6,6.6,0,0,1-4,.48,7.68,7.68,0,0,1-3.17-1.31,6,6,0,0,1-.85-.71,5,5,0,0,1-.52-.63,4,4,0,0,1-.25-.37l-.09-.19a7.53,7.53,0,0,1-.59-1.5,7.73,7.73,0,0,1-.16-3.35,5.63,5.63,0,0,1,2-3.36,5.05,5.05,0,0,1,.87-.58,4.41,4.41,0,0,1,.89-.35,6.21,6.21,0,0,1,1.51-.21,8.28,8.28,0,0,1,2.46.41,8.1,8.1,0,0,1,2.09,1A4,4,0,0,1,130,104.2l-.36.31a9.2,9.2,0,0,0-3.53.59,5.93,5.93,0,0,0-1.38.63,1,1,0,0,0-.34.33s0,.09,0,.09.11,0,.12,0,.27,0,.35,0,.16.24.3.44a1.09,1.09,0,0,0,.2.25l0,0a1.8,1.8,0,0,0-.1-.18c0-.1-.23-.26-.21-.27s-.13-.11-.09-.11l.4.09c.12,0,0,0-.19.09s-.45.47-.37.42,0,0,0,0a1,1,0,0,1,.08-.11l.17-.46a4.62,4.62,0,0,1,.13-.6c0-.2.07-.41.07-.62a8.88,8.88,0,0,0-.23-2.87A23,23,0,0,0,124,98.88Z" transform="translate(-1.53 -15.02)"/></g><g class="cls-4"><path class="cls-5" d="M222.29,98.88a24.36,24.36,0,0,0-1.13,3.38,9.48,9.48,0,0,0-.23,2.87c0,.21.06.42.08.62s.1.4.13.6l.16.46a.28.28,0,0,1,.08.11s0,.08.05,0-.11-.31-.36-.42-.32-.07-.19-.09l.4-.09s-.05,0-.1.11-.15.17-.21.27l-.09.18,0,0a.86.86,0,0,0,.19-.25c.14-.2.23-.4.31-.44s.24.06.34,0,.06,0,.12,0,0-.05,0-.09a1,1,0,0,0-.34-.33,6.22,6.22,0,0,0-1.39-.63,9.17,9.17,0,0,0-3.53-.59l-.35-.31a4,4,0,0,1,1.6-1.79,8.44,8.44,0,0,1,4.55-1.43,6.21,6.21,0,0,1,1.51.21,4.48,4.48,0,0,1,.9.35,5,5,0,0,1,.86.58,5.63,5.63,0,0,1,2,3.36,7.43,7.43,0,0,1-.16,3.35,8.14,8.14,0,0,1-.58,1.5l-.1.19c-.07.12-.16.25-.24.37a4.21,4.21,0,0,1-.53.63,5.5,5.5,0,0,1-.85.71,7.58,7.58,0,0,1-3.16,1.31,6.6,6.6,0,0,1-4-.48,5.93,5.93,0,0,1-3-3.11,4.36,4.36,0,0,1-.3-.85c-.07-.27-.14-.54-.2-.81,0-.49-.09-1-.1-1.45a11,11,0,0,1,.35-2.62,10.21,10.21,0,0,1,2.45-4.3,9.15,9.15,0,0,1,3.9-2.42Z" transform="translate(-1.53 -15.02)"/></g><path class="cls-6" d="M201.64,50.66l-10.7-28.55s-1.57-7.21-13.3-7.08-11.95,4.55-11.95,4.55l13,31.32" transform="translate(-1.53 -15.02)"/><path class="cls-7" d="M187.55,154.09c-36.42,6.36-45.73-9.89-45.73-9.89v23.86Z" transform="translate(-1.53 -15.02)"/><path class="cls-6" d="M170.2,105.36c-3.95,0-6.42,11.79-4.76,11.79h7C173.59,117.15,170.2,105.36,170.2,105.36Z" transform="translate(-1.53 -15.02)"/><path class="cls-8" d="M215.07,92.35s-12.32,31-41.92,32.15c-29.6-1.12-41.91-32.13-41.92-32.15-.15,32.91,1.57,63.32,40.69,63.32l1.23,0,1.23,0C211.3,155.67,215.23,125.26,215.07,92.35Z" transform="translate(-1.53 -15.02)"/><path class="cls-9" d="M142.06,178.46s4.38,14.71,32.81,14.71,28.49-14.47,28.49-14.47l9,253.89-82.7-5.53S111.23,240.48,112,239Z" transform="translate(-1.53 -15.02)"/><path class="cls-10" d="M173,200.59c14.64,0,24.94-3.62,32.17-8.32l-1.79-13.57s-.1,14.47-28.53,14.47-32.74-14.71-32.74-14.71-2.15-.25-6.14,6.62C141.43,192.84,152.14,200.59,173,200.59Z" transform="translate(-1.53 -15.02)"/><path class="cls-11" d="M155.25,512.83c2.24-8.86,6.2-16.58,13.2-16.32,7.38.27,11.43,7.76,13.64,16.32h84l1.62-85.77H71.23l-1.3,23.45s.35,26.67,1,62.32Z" transform="translate(-1.53 -15.02)"/><path class="cls-12" d="M224.35,444.33c-5.41,2-10.66,44.51,31.86,46.13" transform="translate(-1.53 -15.02)"/><path class="cls-12" d="M118.83,444.32s6.84,44.52-42.14,44.52" transform="translate(-1.53 -15.02)"/><g class="cls-13"><polygon class="cls-9" points="164.29 412.04 162.55 447.63 158.91 447.63 157.17 412.04 164.29 412.04"/></g><circle class="cls-9" cx="175.03" cy="422.48" r="7.08"/><polygon class="cls-14" points="111.97 57.1 169.89 61.55 230.31 60.91 229.55 47.42 168.53 48.06 112.92 44.67 111.97 57.1"/><path class="cls-3" d="M203.36,178.7S191.28,294.28,191,330.76s3.77,122.56,4.17,122.68c14.48,4.59,77.26,19.25,77.26,19.25a617.09,617.09,0,0,0,3.28-65.2c-.21-48.78-4-107.09-4-107.09h0l4-101.83h0c-.07-.07-11.13-10.75-32.88-14.92A304.41,304.41,0,0,0,203.36,178.7Z" transform="translate(-1.53 -15.02)"/><path class="cls-3" d="M137.39,346l2-.61c-1,11.77-1.48,39.45-1.48,45.24,0,16.75-.33,63.62-.36,64l-79.26,15S54.17,455.38,54,421.94c-.06-11.59.31-31.47,1.39-31.53,3.66-.18,20.37-.52,41.05-13.43C114,366,128,354.08,137.39,346Z" transform="translate(-1.53 -15.02)"/><path class="cls-3" d="M60.64,197,57.42,347.55h0l77.08-54.9h0c3.44-9.08,6.43-103.77,7.54-114.2-25.46,0-61.07-2.71-81.42,18.53Z" transform="translate(-1.53 -15.02)"/><path class="cls-14" d="M136.68,280.49l1.88-28.89s-11.29-4.37-18.12,15.51C112.67,289.68,86.85,297,86.85,297L49.16,335.27,91,322.57l44.42-30.18C135.85,289.46,136.27,285.38,136.68,280.49Z" transform="translate(-1.53 -15.02)"/><path class="cls-15" d="M193.07,408.28l82.26,15.23h0v.18c-.06,12.07-.65,21.6-1.36,28.89L194.34,436.9C194.28,427.3,193.11,417.8,193.07,408.28Z" transform="translate(-1.53 -15.02)"/><path class="cls-14" d="M251.66,281s10.31,41,9.77,79.16-14.36,105.82-14.36,105.82l27.29,6.75s-.9-6.54,1-49.18a552,552,0,0,0-2.82-81l-13.62-58.71Z" transform="translate(-1.53 -15.02)"/><path class="cls-16" d="M150.44,335.09s-4.54,4.73-12.77,11.81A307.91,307.91,0,0,1,96.43,377c-15.38,9.38-29.11,13.31-41.05,13.41v0C28.67,393,7.45,369.67,3.21,344.21a105.75,105.75,0,0,1,6.37-50.92c17-31.82,29.7-65.77,51.06-96.29l0,.06c20.14,9.52,30.11,35.92,32.76,56.58,3,23.91-3.86,51.57-23.23,67.32L53.3,331.54,76,317.37,123,288l17.36,29.78Z" transform="translate(-1.53 -15.02)"/><path class="cls-17" d="M173,294.35c-1-2.76-1.2-8.46-2.68-9.93s-5.86-4.48-7-6.33c-1.27-2-3-8.88-16.69.76-1.89,1.34-8.58,2.16-6.92-2.74,6.77-20-8.09-23.87-6.95-18.32,2.66,13-5.36,25.51-9.11,30.5l22.12,37.95c4.61-.55,10.76-4.95,12.51-6C167.52,314.94,177.78,307.84,173,294.35Z" transform="translate(-1.53 -15.02)"/><path class="cls-10" d="M114.09,293.53l27.62,49.82c5.64-5.05,8.73-8.26,8.73-8.26l-10.09-17.34L123,288Z" transform="translate(-1.53 -15.02)"/><ellipse class="cls-2" cx="153.1" cy="86.25" rx="4.27" ry="5.42"/><ellipse class="cls-2" cx="187.93" cy="86.25" rx="4.27" ry="5.42"/><path class="cls-2" d="M146.86,91.52a2.42,2.42,0,0,0,1.58-.62,10.39,10.39,0,0,1,12.34,0,2.4,2.4,0,0,0,1.58.62h0a2.35,2.35,0,0,0,1.24-4.34,15.88,15.88,0,0,0-9-2.66,14.38,14.38,0,0,0-9,2.66c-1.84,1.48-1.13,4.34,1.24,4.34Z" transform="translate(-1.53 -15.02)"/><path class="cls-2" d="M181.68,91.52a2.38,2.38,0,0,0,1.58-.62,10.41,10.41,0,0,1,12.35,0,2.38,2.38,0,0,0,1.58.62h0a2.35,2.35,0,0,0,1.23-4.34,15.83,15.83,0,0,0-9-2.66,14.33,14.33,0,0,0-9,2.66c-1.84,1.48-1.13,4.34,1.23,4.34Z" transform="translate(-1.53 -15.02)"/><path class="cls-15" d="M137.88,410.74,54,426.27h0v.18c.06,12.07.64,21.6,1.36,28.89l82.37-16.22C137.78,429.52,137.83,420.26,137.88,410.74Z" transform="translate(-1.53 -15.02)"/><path class="cls-14" d="M60.84,469.13l1.34-.26,11.28-2.13,11.77-2.24s-12.28-29.74,0-57,54.2-62.12,54.2-62.12l-2.72,1.19c-9.35,8.09-23.1,19.71-40.28,30.42C75.75,389.89,59,390.23,55.38,390.41c-1.08.06-1.45,19.94-1.39,31.53.17,33.44,4.33,47.66,4.34,47.66l1.68-.32Z" transform="translate(-1.53 -15.02)"/><path class="cls-2" d="M157.7,124.31,183,131.64a.71.71,0,0,1,.5,1c-1.26,2.55-6.25,10.89-16.75,7.84s-10.25-12.76-9.94-15.59A.7.7,0,0,1,157.7,124.31Z" transform="translate(-1.53 -15.02)"/><path class="cls-15" d="M158.62,124.57s-1.06,6,9.13,9.25,14.48-2.39,14.48-2.39Z" transform="translate(-1.53 -15.02)"/><path class="cls-18" d="M160.75,137s1.89-.81,7.2.68,6.37,3.12,6.37,3.12a15.13,15.13,0,0,1-7.62-.38C162.19,139.17,160.75,137,160.75,137Z" transform="translate(-1.53 -15.02)"/><g class="cls-13"><path class="cls-19" d="M79.37,466.58s-1.26,8-2,17.69" transform="translate(-1.53 -15.02)"/><path class="cls-19" d="M76.85,495.2c-.08,6.78.35,13.29,1.84,17.63" transform="translate(-1.53 -15.02)"/></g><g class="cls-13"><path class="cls-20" d="M263.1,475.17s-.21,7.94-.81,16.81" transform="translate(-1.53 -15.02)"/><path class="cls-20" d="M262,496.19c-.53,6.53-1.28,13-2.31,16.64" transform="translate(-1.53 -15.02)"/></g><path class="cls-21" d="M265.39,448.14c-.15.32-10.58,21.27-12.15,26.34s5.18,2.67,8.14-1.26,2.72-1.05,2.13,1-7.44,25.28-5.75,26.18c3.76,2,6.47-7.09,9-6.44,2.32.59-2.95,10.72.51,12.29s6.55-8.42,8.6-7.44-2.37,9.89,1,11.2,5.62-9.19,8.42-7.67-1.07,7.33,1,8.36,2.16,1.75,5-5,12-24.85,13.82-35Z" transform="translate(-1.53 -15.02)"/><path class="cls-9" d="M327.44,308.83C344.65,405.69,307.59,478,307.59,478l-48.3-18.27s16.58-44,17.4-91.4c.44-26.17-14-63.63-14-63.63s-20.22-21.47-20.55-59.38C241.85,214.88,263.3,202,275.82,197c.19.09.39.22.58.33C304.15,214.45,318.74,260,327.44,308.83Z" transform="translate(-1.53 -15.02)"/><path class="cls-10" d="M263.48,448.14l49,18.21s-1.9,4.85-3.09,7.22-1.76,3.65-1.76,3.65l-47.94-17.75Z" transform="translate(-1.53 -15.02)"/><path class="cls-22" d="M155.44,512.83c2.4-12,10.07-17.35,13.59-16.67,0,0-17.91-4.75-28.23,16.67Z" transform="translate(-1.53 -15.02)"/></svg>