<svg id="Warstwa_1" data-name="Warstwa 1" xmlns="http://www.w3.org/2000/svg" viewBox="0 0 1617.34 579"><defs><style>.cls-1{fill:#ffecd2;}.cls-2{fill:#4154a3;}.cls-3{fill:#f26c22;opacity:0.47;}</style></defs><title>slider__bg1</title><rect class="cls-1" width="1617.34" height="579"/><path class="cls-2" d="M-.34,304.24S17.6,264.42,63.11,248.4c52.86-18.61,137.58-8.54,190.65,79.5C314.54,428.73,357,408.58,430.18,423.16S568.87,533.61,571.09,579H-.34Z" transform="translate(0.34)"/><path class="cls-3" d="M176.62,318.45C112.94,339.32,39.33,114.81,279.33,116.38,457.55,117.56,437.88,0,437.88,0H-.34V579H438C580.7,402.57,309.6,274.88,176.62,318.45Z" transform="translate(0.34)"/><path class="cls-3" d="M-.34,374s18.09,111.14,75.5,113.66,144.59-18.06,188.17,36.63S293.1,579,293.1,579H-.34Z" transform="translate(0.34)"/><path class="cls-2" d="M950.89,0s-80.58,55.9-58.67,139.76C910.29,209,1035,264.78,1209.43,261s277.28-49.89,316.6,4.42,91,45.46,91,45.46V0Z" transform="translate(0.34)"/><path class="cls-3" d="M1617,108.55s-322.51.26-317.06,154.33c3.7,104.83,105.12,105.24,63.34,203.56S990.28,579,990.28,579H1617Z" transform="translate(0.34)"/><path class="cls-3" d="M1042.68,58c-5-52.07,29.71-58,29.71-58H549.14a81.64,81.64,0,0,0-19,17.88C458.06,111,566,230.17,681.34,215.68s103.81-101.27,229.27-72.34,214.61,62.19,241,5.79S1047.63,110.07,1042.68,58Z" transform="translate(0.34)"/><path class="cls-3" d="M1617,420.57s-94.79-10.79-94.5,79.21c.26,80.27-95.07,79.22-95.07,79.22H1617Z" transform="translate(0.34)"/></svg>