<svg xmlns="http://www.w3.org/2000/svg" width="1617.192" height="598.311" viewBox="0 0 1617.192 598.311"><g transform="translate(0 3331.404)"><rect width="1617.191" height="598.31" transform="translate(0 -3331.404)" fill="#ffe7c8"/><path d="M0-2488.643s15.95-40.417,56.419-56.68c47.007-18.89,122.342-8.67,169.535,80.685,54.048,102.334,91.756,81.89,156.874,96.689s123.329,112.089,125.3,158.16H0Z" transform="translate(0 -523.307)" fill="#1f4395"/><path d="M157.359-3002.331c-56.631,21.563-122.089-210.439,91.326-208.808C407.17-3209.927,389.68-3331.4,389.68-3331.4H0v598.31H389.783C516.678-2915.4,275.6-3047.355,157.359-3002.331Z" transform="translate(0 0)" fill="#ef5314" opacity="0.47"/><path d="M0-2121.583s16.087,112.8,67.136,115.36,128.568-18.335,167.328,37.172,26.47,55.506,26.47,55.506H0Z" transform="translate(0 -819.549)" fill="#ef5314" opacity="0.47"/><path d="M2574.38-3331.4s-71.654,56.732-52.178,141.842c16.07,70.224,126.922,126.887,282.081,123.042s246.564-50.63,281.53,4.486,80.893,46.144,80.893,46.144V-3331.4Z" transform="translate(-1549.515 0)" fill="#1f4395"/><path d="M3364.771-2980.3s-286.789.27-281.945,156.642c3.3,106.387,93.482,106.809,56.331,206.592s-331.685,114.241-331.685,114.241h557.3Z" transform="translate(-1747.58 -230.269)" fill="#ef5314" opacity="0.47"/><path d="M1913.886-3272.534c-4.4-52.847,26.423-58.869,26.423-58.869H1475.018a77.423,77.423,0,0,0-16.9,18.142c-64.089,94.507,31.877,215.46,134.461,200.758s92.308-102.781,203.874-73.421,190.835,63.122,214.323,5.872S1918.29-3219.687,1913.886-3272.534Z" transform="translate(-917.434 0)" fill="#ef5314" opacity="0.47"/><path d="M4214.939-1971.914s-84.287-10.949-84.032,80.4c.228,81.464-84.542,80.4-84.542,80.4h168.574Z" transform="translate(-2597.747 -921.975)" fill="#ef5314" opacity="0.47"/></g></svg>